<?xml version="1.0" encoding="UTF-8" standalone="no"?>
<!DOCTYPE svg PUBLIC "-//W3C//DTD SVG 1.1//EN" "http://www.w3.org/Graphics/SVG/1.1/DTD/svg11.dtd">
<svg width="240.00" height="240.00" viewBox="0.00 0.00 1000.00 1000.00" xmlns="http://www.w3.org/2000/svg" xmlns:xlink="http://www.w3.org/1999/xlink">
<g stroke-linecap="round" id="Layer_6_Copy">
<path d="M408.07,162.69 C408.07,162.69 406.17,161.86 406.17,161.86" fill="none" stroke="rgb(0, 0, 0)" stroke-width="50.54" stroke-opacity="1.00" stroke-linejoin="round"/>
<path d="M532.01,150.57 C532.01,150.57 500.06,151.11 500.06,151.11 C486.63,152.22 454.31,154.96 438.13,156.66 C428.21,157.85 412.82,160.76 406.66,162.82 C400.53,164.98 390.03,168.98 381.38,172.89 C374.77,176.07 361.00,182.82 353.96,186.99 C345.42,192.05 334.76,199.84 329.15,204.15 C323.44,208.72 311.27,218.91 306.03,224.13 C300.39,229.77 290.42,241.60 285.46,248.63 C281.72,254.03 273.80,267.09 269.07,275.75 C265.24,283.21 258.25,298.05 255.10,305.39 C250.93,315.81 247.96,324.33 244.75,335.19 C242.33,344.35 239.69,356.37 238.04,365.63 C235.60,381.08 233.04,406.33 232.00,427.30 C231.64,443.02 230.72,474.93 230.16,491.13 C229.27,507.15 227.05,539.57 225.72,555.97 C224.34,570.78 221.28,601.60 219.25,618.60 C217.18,633.59 212.83,659.45 208.97,677.31 C206.33,688.55 203.35,699.66 200.67,707.21 C197.83,715.16 190.88,730.28 187.44,736.70 C184.28,742.48 175.11,757.79 171.27,764.10 C166.35,771.99 161.35,778.89 155.44,786.30" fill="none" stroke="rgb(0, 0, 0)" stroke-width="49.70" stroke-opacity="1.00" stroke-linejoin="miter"/>
<path d="M591.93,162.69 C591.93,162.69 593.83,161.86 593.83,161.86" fill="none" stroke="rgb(0, 0, 0)" stroke-width="50.54" stroke-opacity="1.00" stroke-linejoin="round"/>
<path d="M441.34,152.19 C441.34,152.19 500.44,151.36 500.44,151.36 C513.77,152.42 545.84,155.03 561.91,156.68 C571.78,157.85 587.11,160.72 593.30,162.80 C599.45,164.97 609.97,168.98 618.63,172.90 C625.24,176.07 639.00,182.82 646.05,186.99 C654.58,192.05 665.24,199.84 670.85,204.15 C676.56,208.72 688.73,218.91 693.97,224.13 C699.61,229.77 709.58,241.60 714.54,248.63 C718.28,254.03 726.20,267.09 730.93,275.75 C734.76,283.21 741.75,298.05 744.90,305.39 C749.07,315.81 752.04,324.33 755.25,335.19 C757.67,344.35 760.31,356.37 761.96,365.63 C764.40,381.08 766.96,406.33 768.00,427.30 C768.36,443.02 769.28,474.93 769.84,491.13 C770.73,507.15 772.95,539.57 774.28,555.97 C775.66,570.78 778.72,601.60 780.75,618.60 C782.82,633.59 787.17,659.45 791.03,677.31 C793.67,688.55 796.65,699.66 799.33,707.21 C802.17,715.16 809.12,730.28 812.56,736.70 C815.72,742.48 824.89,757.79 828.73,764.10 C833.65,771.99 838.65,778.89 844.56,786.30" fill="none" stroke="rgb(0, 0, 0)" stroke-width="49.70" stroke-opacity="1.00" stroke-linejoin="miter"/>
<path d="M100.41,826.86 L724.84,825.73 L849.28,825.51 L900.34,825.41 L724.84,825.75" fill="none" stroke="rgb(0, 0, 0)" stroke-width="47.90" stroke-opacity="1.00" stroke-linejoin="miter"/>
<path d="M541.50,143.50 L541.50,143.50 Z" fill="none" stroke="rgb(0, 0, 0)" stroke-width="47.90" stroke-opacity="1.00" stroke-linejoin="miter"/>
<path d="M500.61,28.18 C503.99,28.20 512.04,29.50 515.83,30.66 C519.49,31.80 526.38,35.44 529.50,37.67 C533.00,40.21 537.79,45.00 540.33,48.50 C542.56,51.62 546.20,58.51 547.34,62.17 C548.50,65.96 549.80,74.01 549.82,77.40 C549.80,80.78 548.50,88.83 547.34,92.62 C546.20,96.28 542.56,103.17 540.33,106.29 C537.79,109.79 533.00,114.58 529.50,117.12 C526.38,119.35 519.49,122.99 515.83,124.13 C512.04,125.29 503.99,126.59 500.61,126.61 C497.22,126.59 489.17,125.29 485.38,124.13 C481.72,122.99 474.83,119.35 471.71,117.12 C468.21,114.58 463.42,109.79 460.88,106.29 C458.65,103.17 455.01,96.28 453.87,92.62 C452.72,88.83 451.41,80.78 451.39,77.40 C451.41,74.01 452.72,65.96 453.87,62.17 C455.01,58.51 458.65,51.62 460.88,48.50 C463.42,45.00 468.21,40.21 471.71,37.67 C474.83,35.44 481.72,31.80 485.38,30.66 C489.17,29.50 497.22,28.20 500.61,28.18 Z" fill="none" stroke="rgb(0, 0, 0)" stroke-width="52.27" stroke-opacity="1.00" stroke-linejoin="round"/>
<path d="M600.12,847.87 L550.14,974.85 L450.17,974.85 L395.84,840.42 L395.84,840.42" fill="none" stroke="rgb(0, 0, 0)" stroke-width="47.90" stroke-opacity="1.00" stroke-linejoin="miter"/>
</g>
</svg>
