<?xml version="1.0" encoding="UTF-8" standalone="no"?>
<!DOCTYPE svg PUBLIC "-//W3C//DTD SVG 1.1//EN" "http://www.w3.org/Graphics/SVG/1.1/DTD/svg11.dtd">
<svg width="240.00" height="240.00" viewBox="0.00 0.00 1000.00 1000.00" xmlns="http://www.w3.org/2000/svg" xmlns:xlink="http://www.w3.org/1999/xlink">
<g stroke-linecap="round" id="Layer_1">
<path d="M349.45,539.29 C347.54,535.90 339.13,518.97 335.96,511.98 C332.93,504.89 327.40,490.61 324.89,483.44 C322.52,476.26 318.71,461.59 317.01,454.14 C315.48,446.62 312.91,431.45 311.89,423.88 C310.63,412.68 310.12,404.91 309.87,393.65 C309.88,386.01 310.42,370.63 310.93,362.97 C311.62,355.37 313.45,340.32 314.85,332.89 C316.38,325.45 319.97,310.57 322.03,303.13 C324.24,295.78 330.33,277.89 331.78,274.27 C333.23,270.66 341.22,253.53 344.72,246.70 C348.38,239.91 356.08,226.68 360.13,220.25 C364.26,213.92 373.36,201.79 378.12,195.82 C383.05,189.94 393.31,178.47 398.59,172.95 C406.56,164.98 412.31,159.74 420.97,152.52 C426.94,147.77 439.30,138.60 445.61,134.23 C451.98,130.02 464.89,122.07 471.57,118.53 C478.34,115.09 492.22,108.62 499.31,105.59 C506.44,102.74 524.23,96.34 527.95,95.22 C531.68,94.11 550.06,89.67 557.58,88.14 C565.17,86.77 580.32,84.55 587.87,83.70 C595.40,82.99 610.55,82.53 618.19,82.54 C625.86,82.72 641.22,83.59 648.83,84.28 C660.03,85.55 667.71,86.77 678.75,89.04 C686.19,90.75 701.07,94.69 708.42,96.90 C715.68,99.26 729.94,104.40 736.88,107.41 C743.79,110.56 757.50,117.37 764.29,121.03 C770.97,124.83 787.06,134.74 790.26,136.96 C793.45,139.18 808.38,150.78 814.26,155.71 C820.07,160.79 831.25,171.25 836.62,176.62 C841.87,182.06 851.67,193.62 856.43,199.60 C861.07,205.71 869.97,218.27 874.18,224.64 C880.17,234.18 884.00,240.96 889.11,251.00 C892.41,257.89 898.61,271.97 901.46,279.10 C904.14,286.25 909.02,300.60 910.99,307.90 C912.84,315.27 916.06,330.24 917.43,337.83 C918.63,345.41 920.91,364.18 921.17,368.06 C921.42,371.94 921.66,390.84 921.48,398.52 C921.13,406.22 919.92,421.49 919.07,429.04 C918.09,436.53 915.16,451.41 913.45,458.85 C911.57,466.29 907.30,481.08 904.94,488.34 C901.21,498.97 898.31,506.19 893.64,516.45 C890.32,523.32 883.17,536.95 879.37,543.63 C875.46,550.18 867.28,562.94 862.79,569.03 C858.18,575.07 848.49,586.92 843.41,592.73 C838.23,598.39 824.98,611.87 822.11,614.50 C819.23,617.12 804.60,629.09 798.49,633.73 C792.24,638.26 779.56,646.83 773.12,650.87 C766.65,654.78 753.20,661.77 746.31,665.07 C739.32,668.24 725.10,674.12 717.95,676.80 C707.31,680.52 699.86,682.75 688.93,685.49 C681.48,687.18 666.37,690.09 658.79,691.29 C651.22,692.31 636.14,693.87 628.59,694.16 C620.99,694.33 605.68,694.14 597.98,693.78 C590.32,693.26 571.52,691.31 567.67,690.70 C563.83,690.09 545.35,686.11 537.91,684.23 C530.47,682.17 515.86,677.60 508.69,675.08 C501.60,672.46 487.75,666.30 480.88,662.98 C474.04,659.48 460.57,652.03 454.02,648.11 C444.48,642.12 438.09,637.68 429.13,630.84 C423.16,626.08 411.47,616.07 405.81,610.89 C400.29,605.61 389.67,594.80 384.73,589.07 C379.87,583.23 370.47,571.15 365.94,564.90 C361.57,558.59 351.37,542.67 349.45,539.29 Z" fill="none" stroke="rgb(0, 0, 0)" stroke-width="53.46" stroke-opacity="1.00" stroke-linejoin="round"/>
<path d="M382.61,622.58 L86.91,921.39 L86.91,921.39" fill="none" stroke="rgb(0, 0, 0)" stroke-width="54.26" stroke-opacity="1.00" stroke-linejoin="miter"/>
</g>
</svg>
